<?xml version="1.0" encoding="UTF-8" standalone="no"?>
<!-- Created with Inkscape (http://www.inkscape.org/) -->

<svg
   xmlns:dc="http://purl.org/dc/elements/1.1/"
   xmlns:cc="http://creativecommons.org/ns#"
   xmlns:rdf="http://www.w3.org/1999/02/22-rdf-syntax-ns#"
   xmlns:svg="http://www.w3.org/2000/svg"
   xmlns="http://www.w3.org/2000/svg"
   xmlns:sodipodi="http://sodipodi.sourceforge.net/DTD/sodipodi-0.dtd"
   xmlns:inkscape="http://www.inkscape.org/namespaces/inkscape"
   width="19.25in"
   height="10.9in"
   viewBox="0 0 488.95 276.86"
   version="1.1"
   id="svg1317"
   inkscape:version="0.92.3 (2405546, 2018-03-11)"
   sodipodi:docname="stenciltest.svg">
  <defs
     id="defs1311" />
  <sodipodi:namedview
     id="base"
     pagecolor="#ffffff"
     bordercolor="#666666"
     borderopacity="1.0"
     inkscape:pageopacity="0.0"
     inkscape:pageshadow="2"
     inkscape:zoom="0.35"
     inkscape:cx="402.85714"
     inkscape:cy="560"
     inkscape:document-units="in"
     inkscape:current-layer="layer1"
     showgrid="false"
     units="in"
     inkscape:window-width="1920"
     inkscape:window-height="1018"
     inkscape:window-x="-8"
     inkscape:window-y="-8"
     inkscape:window-maximized="1" />
  <metadata
     id="metadata1314">
    <rdf:RDF>
      <cc:Work
         rdf:about="">
        <dc:format>image/svg+xml</dc:format>
        <dc:type
           rdf:resource="http://purl.org/dc/dcmitype/StillImage" />
        <dc:title></dc:title>
      </cc:Work>
    </rdf:RDF>
  </metadata>
  <g
     inkscape:label="Layer 1"
     inkscape:groupmode="layer"
     id="layer1"
     transform="translate(0,-20.139982)">
    <path
       style="fill:#ffffff;fill-opacity:1;fill-rule:evenodd;stroke:#0000ff;stroke-width:0.30842859"
       d="M 129.64584,60.31129 V 276.2113 H 345.54585 V 60.31129 Z"
       id="path2563" />
    <path
       id="path1138-1-9"
       style="fill:#ffffff;fill-opacity:1;fill-rule:evenodd;stroke:#000000;stroke-width:0.30842859"
       d="m 246.64751,258.47131 c 0.2316,0 0.4107,0.0653 0.53673,0.19579 0.12603,0.13052 0.18916,0.29371 0.18916,0.49033 0,0.19324 -0.0632,0.35359 -0.18916,0.48072 -0.12603,0.12711 -0.30513,0.19096 -0.53673,0.19096 -0.22139,0 -0.39648,-0.0631 -0.5259,-0.18855 -0.12942,-0.12544 -0.19398,-0.28649 -0.19398,-0.48313 0,-0.19662 0.0625,-0.35981 0.18855,-0.49033 0.12602,-0.1305 0.30312,-0.19579 0.53133,-0.19579 z m -6.47277,-4.20052 h 1.28732 l 1.1855,3.93607 1.16988,-3.93607 h 1.2825 l -1.91562,5.5023 h -1.07829 z m -32.00129,0 h 1.28732 l 1.18493,3.93607 1.17045,-3.93607 h 1.28192 l -1.91562,5.5023 h -1.0783 z m 16.80032,-0.0216 v 1.09218 c -0.0731,0.0492 -0.14243,0.10526 -0.20421,0.17528 -0.20946,0.2373 -0.34328,0.5684 -0.4012,0.99216 h 0.60541 v 0.9048 h -0.6259 c 0.0375,0.45426 0.18985,0.81388 0.45722,1.0783 0.26735,0.26441 0.60372,0.39639 1.00903,0.39639 0.56878,0 1.03212,-0.2291 1.38974,-0.68675 l 0.66926,0.63614 c -0.22138,0.32881 -0.5172,0.5837 -0.88672,0.76505 -0.36953,0.18139 -0.78419,0.27228 -1.24396,0.27228 -0.78677,0 -1.42444,-0.24711 -1.91322,-0.74035 -0.48873,-0.49327 -0.73313,-1.15007 -0.73313,-1.97046 v -0.15239 c 0,-0.54916 0.10643,-1.04005 0.31928,-1.47228 0.21285,-0.43223 0.51212,-0.7683 0.89697,-1.00899 0.20739,-0.1297 0.42838,-0.22158 0.66143,-0.28136 z m 31.01818,-0.007 v 1.0783 c -0.13223,0.0783 -0.25055,0.1842 -0.35242,0.32107 -0.23842,0.32037 -0.35784,0.79939 -0.35784,1.43672 0,0.56613 0.11738,1.00919 0.35242,1.32952 0.10153,0.13848 0.2219,0.24483 0.35784,0.32348 v 1.07888 c -0.49593,-0.10503 -0.91373,-0.34026 -1.24939,-0.71081 -0.46832,-0.51694 -0.70242,-1.20579 -0.70242,-2.06683 v -0.0608 c 0,-0.53902 0.10713,-1.02498 0.32169,-1.4572 0.21458,-0.43224 0.51594,-0.76418 0.90419,-0.99639 0.21562,-0.12892 0.45382,-0.21858 0.72593,-0.27589 z m -19.53282,-0.005 v 1.08314 c -0.13176,0.0782 -0.24903,0.18397 -0.35059,0.32045 -0.23842,0.32036 -0.35784,0.79939 -0.35784,1.43672 0,0.56613 0.11739,1.00918 0.35241,1.32952 0.10119,0.13802 0.22068,0.24428 0.35602,0.32286 v 1.0795 c -0.49537,-0.10515 -0.91218,-0.34057 -1.24757,-0.71081 -0.46831,-0.51695 -0.70241,-1.20579 -0.70241,-2.06683 v -0.0609 c 0,-0.53902 0.10713,-1.02498 0.32169,-1.45721 0.21457,-0.43223 0.51653,-0.76417 0.9048,-0.99638 0.22171,-0.13259 0.46417,-0.22327 0.72349,-0.28011 z m -20.86955,0 v 1.08372 c -0.13157,0.0782 -0.2492,0.18363 -0.35059,0.31987 -0.23841,0.32036 -0.35784,0.79939 -0.35784,1.43672 0,0.56613 0.11743,1.00918 0.35242,1.32952 0.1013,0.13802 0.22056,0.24428 0.35601,0.32286 v 1.0795 c -0.49511,-0.10515 -0.91159,-0.3406 -1.24694,-0.71081 -0.46831,-0.51695 -0.70306,-1.20579 -0.70299,-2.06683 v -0.0609 c 0,-0.53902 0.10771,-1.02498 0.32227,-1.45721 0.21457,-0.43223 0.51591,-0.76417 0.90419,-0.99638 0.2216,-0.13253 0.46418,-0.22324 0.72347,-0.28011 z m 22.11048,-0.003 c 0.46551,0.0998 0.86305,0.31528 1.18974,0.65122 0.46492,0.478 0.71613,1.11188 0.75361,1.90177 l 0.006,0.28974 c 0,0.5424 -0.10492,1.02706 -0.31444,1.45421 -0.20964,0.42715 -0.50882,0.75763 -0.8988,0.99154 -0.22441,0.13459 -0.47113,0.22589 -0.73553,0.28314 v -1.0735 c 0.13851,-0.0801 0.26009,-0.19008 0.36264,-0.33312 0.23329,-0.32546 0.34939,-0.80171 0.34939,-1.4289 0,-0.55596 -0.11951,-0.99684 -0.35963,-1.32226 -0.10165,-0.13781 -0.21978,-0.24467 -0.3524,-0.32409 z m -20.8695,0 c 0.46544,0.0998 0.86292,0.31519 1.18972,0.65122 0.4649,0.478 0.71611,1.11188 0.75359,1.90177 l 0.006,0.28974 c 0,0.5424 -0.10445,1.02706 -0.31386,1.45421 -0.20949,0.42715 -0.5094,0.75763 -0.89938,0.99154 -0.22438,0.13459 -0.47112,0.22589 -0.73551,0.28314 v -1.0735 c 0.13845,-0.0801 0.26004,-0.19002 0.36262,-0.33312 0.23329,-0.32546 0.34942,-0.80171 0.34942,-1.4289 0,-0.55596 -0.11955,-0.99684 -0.35965,-1.32226 -0.10165,-0.13781 -0.21992,-0.24467 -0.35239,-0.32409 z m 9.38415,-0.003 c 0.46156,0.0988 0.83917,0.31488 1.12953,0.65301 0.4102,0.478 0.61561,1.15426 0.61561,2.02886 v 0.49818 h -1.74514 v -0.9048 h 0.51868 v -0.0916 c -0.0272,-0.41358 -0.13777,-0.72663 -0.33194,-0.93852 -0.0556,-0.0606 -0.11889,-0.11039 -0.18674,-0.15363 z m 31.01816,-0.008 c 0.43904,0.0951 0.85059,0.31459 1.18795,0.66146 0.46492,0.478 0.71611,1.11188 0.75358,1.90177 l 0.006,0.28974 c 0,0.54239 -0.10491,1.02706 -0.31444,1.4542 -0.20945,0.42714 -0.50882,0.75762 -0.8988,0.99154 -0.22394,0.13432 -0.46994,0.22525 -0.73371,0.28252 v -1.07466 c 0.13771,-0.0801 0.25876,-0.18894 0.36082,-0.33135 0.2333,-0.32545 0.34939,-0.80169 0.34939,-1.42888 0,-0.55598 -0.11951,-0.99684 -0.35962,-1.32227 -0.1013,-0.13735 -0.21853,-0.24415 -0.35059,-0.32347 z m 5.8264,-0.0555 c 0.70664,0 1.21246,0.28126 1.48493,0.84399 0.40189,-0.56273 0.9669,-0.84399 1.69574,-0.84399 0.60968,0 1.06343,0.16738 1.36144,0.50302 0.29803,0.33561 0.45043,0.83063 0.45721,1.4849 v 3.61561 h -1.24094 v -3.58005 c 0,-0.34918 -0.0768,-0.60477 -0.23011,-0.76746 -0.15325,-0.16273 -0.40722,-0.24459 -0.76144,-0.24459 -0.28268,0 -0.51332,0.0757 -0.69216,0.22651 -0.17878,0.15086 -0.30376,0.34806 -0.37529,0.59216 l 0.006,3.77343 h -1.24154 v -3.62042 c -0.0169,-0.64752 -0.34924,-0.97168 -0.99638,-0.97168 -0.49725,0 -0.85007,0.202 -1.05782,0.60542 v 3.98668 h -1.24093 v -5.5023 h 1.16925 l 0.0361,0.57466 c 0.38827,-0.45086 0.91985,-0.67589 1.62646,-0.67589 z m -11.98233,0 c 0.65733,0 1.19282,0.19034 1.60662,0.57171 0.41381,0.38137 0.63144,0.8826 0.65179,1.50297 h -1.16987 c -0.0135,-0.31528 -0.12204,-0.57488 -0.32468,-0.77829 -0.20267,-0.20338 -0.46073,-0.30482 -0.77409,-0.30482 -0.40189,0 -0.71155,0.1445 -0.92952,0.43433 -0.21796,0.28986 -0.32851,0.73002 -0.3319,1.31986 v 0.19819 c 0,0.59666 0.10783,1.0417 0.3241,1.33492 0.21612,0.29325 0.52862,0.43975 0.93732,0.43975 0.30994,0 0.56732,-0.0896 0.77168,-0.26929 0.20437,-0.17966 0.31352,-0.40182 0.32709,-0.66624 h 1.16987 c -0.0135,0.3424 -0.12134,0.6618 -0.32227,0.95842 -0.20095,0.29665 -0.47288,0.5313 -0.81688,0.70421 -0.34399,0.17287 -0.71534,0.25962 -1.11382,0.25962 -0.77314,0 -1.38614,-0.24924 -1.83914,-0.74756 -0.45298,-0.49833 -0.67949,-1.18644 -0.67949,-2.06444 v -0.1271 c 0,-0.83736 0.2245,-1.508 0.67407,-2.01142 0.44959,-0.50341 1.06256,-0.75482 1.83912,-0.75482 z m -19.3569,0 c 1.15129,0 1.73684,0.6555 1.75721,1.96743 v 3.6361 h -1.24156 v -3.56438 c 0,-0.34917 -0.0755,-0.6081 -0.22709,-0.77591 -0.1515,-0.16782 -0.39935,-0.25181 -0.74338,-0.25181 -0.50064,0 -0.87341,0.22561 -1.11864,0.67651 v 3.91559 h -1.24154 v -5.5023 h 1.16986 l 0.0356,0.63613 c 0.4087,-0.49153 0.94549,-0.73736 1.60961,-0.73736 z m -11.57691,-1.23611 h 1.24156 v 1.33734 h 0.97586 v 0.91563 h -0.97586 v 3.07103 c 0,0.21019 0.0419,0.36219 0.12528,0.45542 0.0835,0.0933 0.23243,0.13975 0.447,0.13975 0.14306,0 0.28783,-0.0167 0.43433,-0.0506 v 0.956 c -0.28274,0.078 -0.5552,0.11686 -0.81745,0.11686 -0.95364,0 -1.43072,-0.5241 -1.43072,-1.57165 v -3.11683 h -0.90902 v -0.91563 h 0.90902 z m 93.29181,-26.3086 c 0.4355,0.96801 0.65843,2.01537 0.65843,3.14634 0,2.61884 -0.88758,4.70403 -2.66259,6.25593 -1.77489,1.55189 -4.10972,2.32761 -7.00532,2.32767 -2.92343,0 -5.26598,-0.77908 -7.02698,-2.33791 -0.0305,-0.0268 -0.0586,-0.0553 -0.0886,-0.0825 l 3.22885,-1.86383 c 0.9853,0.76333 2.28033,1.14637 3.88669,1.14637 1.80973,0 3.2294,-0.49537 4.25955,-1.4861 1.03015,-0.99074 1.54517,-2.33841 1.54517,-4.04273 0,-0.40429 -0.0329,-0.7898 -0.0947,-1.1584 z m -86.6889,-7.1077 c 0.005,0.17481 0.009,0.34846 0.0105,0.5271 v 4.98785 c 0,4.50327 -0.77283,7.84972 -2.31806,10.03901 -1.54526,2.18929 -3.96029,3.28366 -7.24567,3.28368 -3.24361,0 -5.64491,-1.07 -7.20409,-3.21079 -0.90853,-1.24751 -1.55975,-2.85661 -1.95778,-4.82161 l 3.44753,-1.99093 c 0.1836,2.09006 0.62697,3.71465 1.3325,4.86798 0.9536,1.55883 2.39803,2.33793 4.33306,2.33793 1.90719,0 3.32359,-0.73422 4.24934,-2.20299 0.92574,-1.46877 1.40939,-3.78282 1.45119,-6.94204 v -4.62283 z m 86.27567,-6.63121 c 0.24043,0.81999 0.36142,1.71621 0.36142,2.68971 0,1.51035 -0.40012,2.85404 -1.20056,4.03183 -0.80046,1.17777 -1.88268,2.09929 -3.24695,2.76442 0.7567,0.32374 1.43577,0.72065 2.04214,1.18613 l -2.79332,1.61323 c -1.01517,-0.81292 -2.28227,-1.21986 -3.80117,-1.21986 -1.74015,0 -3.13564,0.52643 -4.18667,1.57949 -1.05103,1.0531 -1.57646,2.43896 -1.57646,4.15715 0,0.33811 0.0256,0.65782 0.065,0.96749 l -3.49391,2.01743 c -0.28785,-0.8822 -0.43432,-1.84854 -0.43432,-2.90177 0,-1.63504 0.44903,-3.11068 1.34696,-4.42702 0.8979,-1.31634 2.14062,-2.3138 3.72764,-2.99275 -0.56131,-0.27647 -1.07038,-0.59995 -1.53311,-0.96503 l 2.84153,-1.64033 c 0.8688,0.69545 1.96284,1.04635 3.28549,1.04635 1.54524,0 2.78022,-0.47489 3.70596,-1.42405 0.92575,-0.94916 1.38913,-2.19261 1.38913,-3.73066 0,-0.24384 -0.0163,-0.47768 -0.0403,-0.70723 z m -46.86912,-5.19027 h 0.60541 v 30.40729 h -3.88367 v -25.62665 l -7.78902,2.84692 v -3.4915 z m -93.11351,0 c 2.82601,0 5.06024,0.73813 6.70293,2.21381 1.64269,1.47571 2.46441,3.4395 2.46441,5.89206 0,2.97911 -1.90723,6.52607 -5.7216,10.6414 l -8.14385,8.792 h 15.26421 v 3.13852 h -19.92073 v -2.76441 l 10.52391,-11.63896 c 1.55918,-1.75974 2.63479,-3.19054 3.22645,-4.29209 0.59163,-1.10159 0.88731,-2.24145 0.88731,-3.41924 0,-1.57959 -0.48034,-2.87518 -1.44091,-3.88667 -0.96054,-1.01152 -2.24119,-1.51747 -3.84213,-1.51747 -1.92111,0 -3.41384,0.54419 -4.47881,1.63193 -1.06494,1.08771 -1.59757,2.6016 -1.59757,4.54149 h -3.86318 c 0,-2.78512 0.90141,-5.03714 2.70417,-6.75533 1.80279,-1.71816 4.21453,-2.57704 7.23539,-2.57704 z m 131.38638,-0.43374 c 2.67285,0 4.83397,0.74803 6.48361,2.24452 0.0257,0.0231 0.0494,0.0476 0.0747,0.0711 l -3.32585,1.92046 c -0.88771,-0.71642 -1.96423,-1.0771 -3.23245,-1.0771 -1.5174,0 -2.74643,0.46771 -3.68609,1.40298 -0.93969,0.93532 -1.40903,2.20647 -1.40903,3.81381 0,0.22318 0.0124,0.43859 0.0319,0.64938 l -3.4126,1.97045 c -0.32061,-0.82862 -0.48254,-1.72217 -0.48254,-2.68188 0,-2.54957 0.82113,-4.57273 2.46382,-6.0692 1.64269,-1.49649 3.80771,-2.24452 6.49448,-2.24452 z m -87.27445,0 c 3.27147,0 5.67992,1.0423 7.22518,3.12764 0.91286,1.23199 1.56115,2.86274 1.94936,4.88549 l -3.61557,2.08728 c -0.19525,-1.88366 -0.60592,-3.35264 -1.24338,-4.38607 -0.91878,-1.48955 -2.37366,-2.23429 -4.36439,-2.23429 -1.9768,0 -3.41736,0.74144 -4.32222,2.22406 -0.9049,1.48261 -1.37156,3.76178 -1.39937,6.83785 v 4.09933 l -3.80052,2.19453 c -0.005,-0.18086 -0.0105,-0.36092 -0.0133,-0.54576 v -5.13365 c 0,-4.44787 0.77222,-7.75272 2.31744,-9.9143 1.54526,-2.16156 3.96744,-3.24211 7.26673,-3.24211 z m 53.24189,-16.91177 h 4.36618 v 4.36681 h -4.36618 z m 43.23962,-8.72214 c 0.22362,0.95206 0.33554,1.98036 0.33554,3.0855 0,3.11765 -0.85243,5.61176 -2.5578,7.48238 -1.70523,1.87059 -3.99177,2.80599 -6.85951,2.80599 -2.9095,0 -5.26962,-1.11216 -7.07939,-3.33609 -0.13,-0.15976 -0.25402,-0.324 -0.37471,-0.49033 l 3.24093,-1.87109 c 0.0118,0.0161 0.0225,0.0324 0.0343,0.0483 1.12759,1.52418 2.53356,2.28671 4.21801,2.28671 1.74012,0 3.10823,-0.63785 4.10355,-1.91262 0.99543,-1.27477 1.49273,-2.94435 1.49273,-5.00895 0,-0.37036 -0.0216,-0.72363 -0.0536,-1.06867 z m -84.53049,-6.85411 c 0.19709,1.16567 0.30117,2.39844 0.30117,3.70719 v 1.91201 c 0,2.96523 -0.50125,5.55303 -1.50358,7.76311 -1.00233,2.21008 -2.42197,3.89684 -4.25956,5.06076 -1.83758,1.16392 -3.98168,1.74574 -6.43181,1.74574 -2.39443,0 -4.51709,-0.58512 -6.36859,-1.75597 -1.85153,-1.17087 -3.28874,-2.84045 -4.31196,-5.00895 -0.0483,-0.10211 -0.0895,-0.20899 -0.13554,-0.31265 l 3.40776,-1.96744 c 0.35136,1.02185 0.81617,1.92885 1.39817,2.71683 1.46867,1.98837 3.49076,2.98246 6.06617,2.98246 2.58932,0 4.59383,-0.93872 6.01377,-2.81622 1.41994,-1.87754 2.15095,-4.56894 2.19272,-8.07457 v -2.24453 c 0,-0.5473 -0.0188,-1.07281 -0.0525,-1.58128 z m 79.89623,-10.47029 h 0.68915 v 3.26317 h -0.71022 c -3.00696,0.0554 -5.40114,0.942 -7.18302,2.66021 -1.78192,1.71816 -2.81188,4.13645 -3.0903,7.25411 1.60093,-1.82904 3.7862,-2.74394 6.55651,-2.74394 2.64503,0 4.75779,0.92877 6.33784,2.78549 0.15076,0.17716 0.29196,0.36061 0.42832,0.54758 l -3.18789,1.84095 c -0.0556,-0.0778 -0.10725,-0.15872 -0.16627,-0.23373 -1.00927,-1.28171 -2.34927,-1.92228 -4.01981,-1.92228 -1.32252,0 -2.54047,0.3951 -3.65418,1.18492 -1.11366,0.78979 -1.88646,1.78001 -2.31802,2.97165 v 1.41383 c 0,0.8352 0.0694,1.61096 0.19579,2.33731 l -3.49092,2.01564 c -0.41754,-1.38812 -0.62829,-2.92258 -0.62829,-4.60656 v -1.47586 c 0,-5.57023 1.19379,-9.82762 3.58125,-12.77209 2.38748,-2.94445 5.94079,-4.45112 10.66006,-4.5204 z m -61.32427,0 h 4.36439 l 8.64504,24.96163 8.68661,-24.96163 h 4.38545 l -11.2763,30.26212 h -3.54995 z m -85.88231,0 h 4.03006 l 15.34796,23.4237 v -23.4237 h 3.98848 v 30.26212 h -4.03006 L 165.82174,171.2438 v 23.32007 h -4.03006 z m 55.375,-0.43374 c 2.43621,0 4.58359,0.58515 6.44205,1.75601 1.85846,1.17085 3.28856,2.86813 4.29089,5.09206 0.0315,0.0698 0.058,0.14329 0.0886,0.21386 l -3.32584,1.92047 c -0.34458,-1.00422 -0.79781,-1.88302 -1.36323,-2.63251 -1.44779,-1.91907 -3.47315,-2.87887 -6.07642,-2.87887 -2.53364,0 -4.52766,0.9598 -5.98239,2.87887 -1.45477,1.91911 -2.20339,4.58273 -2.24515,7.99145 v 2.22406 c 0,0.49412 0.0167,0.97144 0.0464,1.43551 l -3.78973,2.1879 c -0.18545,-1.07309 -0.28893,-2.20218 -0.30059,-3.39512 v -2.18247 c 0,-2.90997 0.50782,-5.48047 1.52407,-7.71133 1.01625,-2.23087 2.45351,-3.93808 4.31199,-5.12282 1.85846,-1.1847 3.98498,-1.77707 6.3794,-1.77707 z m 11.93473,-32.4886 c 0.19718,1.16586 0.30179,2.39883 0.30179,3.70774 v 1.91204 c 0,2.96524 -0.50125,5.55305 -1.50358,7.76313 -1.00233,2.21007 -2.42197,3.89684 -4.25956,5.06075 -1.83758,1.16391 -3.98168,1.74571 -6.43181,1.74577 -2.39443,0 -4.51709,-0.58515 -6.36859,-1.75601 -1.85153,-1.17085 -3.28874,-2.84044 -4.31196,-5.00895 -0.0484,-0.10234 -0.0901,-0.20936 -0.13613,-0.31326 l 3.40777,-1.96744 c 0.35138,1.02216 0.81659,1.92929 1.39875,2.71744 1.46867,1.98838 3.49076,2.98248 6.06617,2.98248 2.58932,0 4.59383,-0.93874 6.01377,-2.81624 1.41994,-1.87752 2.15095,-4.56893 2.19272,-8.07456 v -2.24515 c 0,-0.54727 -0.0188,-1.07284 -0.0525,-1.58127 z m 65.65554,-10.4697 h 19.10689 v 3.28366 h -15.09733 v 9.72694 h 13.17628 v 3.26321 h -13.17628 v 10.72513 h 15.30577 v 3.26259 h -19.31533 z m -45.77516,0 h 23.51287 v 3.28366 h -9.77272 v 26.97787 h -3.98788 v -26.97787 h -9.75227 z m -88.45994,0 h 4.36436 l 8.64504,24.96162 8.68661,-24.96162 h 4.38487 l -11.27572,30.26153 h -3.54995 z m 56.64483,-0.43436 c 2.43621,0 4.58359,0.58577 6.44205,1.75662 1.85846,1.17086 3.28856,2.86814 4.29089,5.09206 0.0315,0.0698 0.058,0.14331 0.0886,0.21387 l -3.32584,1.91985 c -0.34458,-1.004 -0.79781,-1.88243 -1.36323,-2.63188 -1.44779,-1.91908 -3.47315,-2.87888 -6.07642,-2.87888 -2.53364,0 -4.52766,0.9598 -5.98239,2.87888 -1.45477,1.9191 -2.20339,4.58275 -2.24515,7.99141 v 2.22408 c 0,0.49413 0.0167,0.97146 0.0464,1.43552 l -3.78973,2.18789 c -0.18545,-1.0732 -0.28893,-2.20279 -0.30059,-3.3957 v -2.18192 c 0,-2.90968 0.50783,-5.48044 1.52407,-7.7113 1.01625,-2.23086 2.45352,-3.93869 4.31199,-5.1234 1.85847,-1.1847 3.98499,-1.7771 6.37942,-1.7771 z m 30.94346,-42.09024 h 23.51283 v 3.284272 h -9.7727 v 26.977858 h -3.98848 V 81.669382 h -9.75165 z m -41.41558,-0.867454 h 19.10691 v 3.283654 h -15.09733 v 9.726941 h 13.17628 v 3.263207 h -13.17628 v 10.724522 h 15.30577 v 3.26321 h -19.31535 z m -43.15893,0 h 4.03005 v 26.998324 h 14.40821 v 3.26321 h -18.43826 z m 140.33865,-0.434334 c 2.08825,0 3.95031,0.401729 5.58604,1.205407 1.63572,0.803644 2.902,1.912506 3.79993,3.325841 0.8979,1.413347 1.34697,2.958233 1.34697,4.634857 h -4.03005 c 0,-1.829017 -0.58482,-3.266413 -1.75419,-4.312572 -1.16934,-1.046158 -2.81876,-1.569261 -4.9487,-1.569261 -1.97679,0 -3.5185,0.43276 -4.62523,1.298769 -1.10674,0.866032 -1.66025,2.067884 -1.66021,3.605962 0,1.233186 0.52541,2.276104 1.57648,3.128264 1.05103,0.852161 2.84006,1.631254 5.36677,2.337922 2.52667,0.706668 4.50308,1.486356 5.93,2.338505 1.42692,0.85216 2.48495,1.846258 3.17404,2.98248 0.68909,1.136184 1.03373,2.473344 1.03373,4.011384 0,2.45257 -0.96017,4.41697 -2.88128,5.89269 -1.92111,1.47567 -4.48948,2.21319 -7.70528,2.21319 -2.08815,0 -4.03715,-0.39825 -5.84688,-1.19516 -1.80977,-0.79658 -3.20525,-1.88781 -4.1867,-3.27342 -0.98145,-1.38564 -1.47226,-2.95826 -1.47226,-4.718 h 4.03006 c 0,1.82904 0.67882,3.27367 2.03612,4.33367 1.3573,1.06001 3.17052,1.58974 5.43966,1.58974 2.11603,0 3.73735,-0.42949 4.86496,-1.28856 1.12759,-0.8591 1.69155,-2.02995 1.69155,-3.51257 0,-1.48261 -0.52214,-2.6291 -1.56623,-3.439717 -1.04409,-0.81058 -2.93695,-1.610738 -5.67944,-2.400567 -3.43852,-0.983793 -5.94098,-2.192919 -7.50708,-3.627027 -1.56615,-1.434132 -2.34937,-3.204024 -2.34937,-5.310155 0,-2.383291 0.95746,-4.354327 2.87162,-5.913156 1.91414,-1.558839 4.40236,-2.338609 7.46497,-2.338516 z m -28.47425,-0.433739 h 3.82164 v 2.701776 c -0.0139,1.385615 -0.35855,2.76821 -1.03373,4.146912 -0.67518,1.378702 -1.54196,2.490223 -2.59996,3.33547 l -2.19274,-1.496346 c 1.29466,-1.801308 1.96302,-3.699778 2.00479,-5.695097 z" />
  </g>
</svg>
