<?xml version="1.0" encoding="UTF-8"?>
<svg width="700px" height="700px" viewBox="0 0 700 700" version="1.1" xmlns="http://www.w3.org/2000/svg" xmlns:xlink="http://www.w3.org/1999/xlink" style="background: #FFFFFF;">
    <!-- Generator: Sketch 49.3 (51167) - http://www.bohemiancoding.com/sketch -->
    <title>Basic VoteNov</title>
    <desc>Created with Sketch.</desc>
    <defs></defs>
    <g id="Basic-VoteNov" stroke="none" stroke-width="1" fill="none" fill-rule="evenodd">
        <g id="Group-4" transform="translate(100.000000, 53.000000)" fill="#000000">
            <g id="Group-3">
                <polygon id="Path" points="22.8819704 90.3699752 69.5971069 90.3699752 69.5971069 100.949846 9.81527274 100.949846 9.81527274 2.83333829 22.8819704 2.83333829"></polygon>
                <polygon id="Path" points="205.467641 55.5979162 162.746987 55.5979162 162.746987 90.3699752 212.373357 90.3699752 212.373357 100.949846 149.747993 100.949846 149.747993 2.83333829 211.696326 2.83333829 211.696326 13.4805967 162.746987 13.4805967 162.746987 45.0180455 205.467641 45.0180455"></polygon>
                <polygon id="Path" points="360.260552 16.2943515 328.575503 16.2943515 328.575503 103.763601 315.644211 103.763601 315.644211 16.2943515 284.026865 16.2943515 284.026865 5.64709311 360.260552 5.64709311"></polygon>
                <path d="M463.270174,57.1560981 C452.121675,53.9663972 444.008669,50.0467178 438.930911,45.3969425 C433.853154,40.7471672 431.314313,35.0080378 431.314313,28.1793823 C431.314313,20.4522194 434.41734,14.061682 440.623489,9.00757841 C446.829637,3.95347479 454.897509,1.42646089 464.827346,1.42646089 C471.597689,1.42646089 477.634488,2.72927694 482.937924,5.33494814 C488.24136,7.94061934 492.34864,11.5345947 495.259888,16.1169819 C498.171135,20.6993692 499.626737,25.7084723 499.626737,31.1444416 L486.56004,31.1444416 C486.56004,25.2142933 484.664372,20.5533566 480.87298,17.1614915 C477.081587,13.7696264 471.733096,12.0737193 464.827346,12.0737193 C458.418087,12.0737193 453.419392,13.4776159 449.83111,16.2854512 C446.242828,19.0932866 444.448714,22.9905036 444.448714,27.9772191 C444.448714,31.9755767 446.152558,35.3561597 449.560297,38.1190697 C452.968037,40.8819796 458.767878,43.4089935 466.959993,45.7001872 C475.152109,47.9913808 481.561271,50.5183947 486.187673,53.2813047 C490.814074,56.0442147 494.24433,59.2675613 496.478543,62.9514413 C498.712757,66.6353212 499.829847,70.970554 499.829847,75.9572695 C499.829847,83.9090592 496.715535,90.2771343 490.486819,95.0616857 C484.258103,99.8462371 475.930706,102.238477 465.504377,102.238477 C458.734033,102.238477 452.415141,100.946892 446.54751,98.3636835 C440.679879,95.780475 436.1551,92.2426556 432.973039,87.750119 C429.790977,83.2575825 428.19997,78.15863 428.19997,72.4531086 L441.266668,72.4531086 C441.266668,78.3832568 443.466997,83.0666559 447.86772,86.5034464 C452.268443,89.9402368 458.14727,91.6586063 465.504377,91.6586063 C472.364991,91.6586063 477.623213,90.2659408 481.279198,87.4805682 C484.935184,84.6951955 486.763149,80.8990591 486.763149,76.092045 C486.763149,71.2850309 485.070588,67.5675126 481.685417,64.9393788 C478.300245,62.3112449 472.161892,59.7168439 463.270174,57.1560981 Z" id="Path"></path>
                <polygon id="Path" points="42.2233399 224.45372 70.387828 143.521079 84.6054783 143.521079 48.0458062 241.637586 36.5362798 241.637586 0.0443107525 143.521079 14.1942579 143.521079"></polygon>
                <path d="M223.374471,195.687432 C223.374471,205.30146 221.749613,213.691146 218.499848,220.856742 C215.250083,228.022338 210.646319,233.491919 204.688417,237.26565 C198.730514,241.03938 191.779733,242.926218 183.835863,242.926218 C176.072536,242.926218 169.189456,241.028149 163.186419,237.231956 C157.183381,233.435763 152.523197,228.022337 149.205729,220.991518 C145.888261,213.960698 144.184417,205.818097 144.094145,196.563472 L144.094145,189.487762 C144.094145,180.053436 145.741571,171.719905 149.036471,164.486922 C152.331372,157.253938 156.991555,151.71697 163.017161,147.875851 C169.042767,144.034732 175.93713,142.114201 183.700457,142.114201 C191.599191,142.114201 198.561256,144.01227 204.586862,147.808463 C210.612468,151.604656 215.250083,157.107931 218.499848,164.318452 C221.749613,171.528973 223.374471,179.91866 223.374471,189.487762 L223.374471,195.687432 Z M210.624573,189.489034 C210.624573,177.853364 208.277556,168.924582 203.583451,162.702419 C198.889346,156.480256 192.322212,153.369221 183.88185,153.369221 C175.667167,153.369221 169.201585,156.480256 164.484913,162.702419 C159.76824,168.924582 157.342237,177.561354 157.20683,188.612994 L157.20683,195.823479 C157.20683,207.099746 159.587698,215.961141 164.349507,222.407931 C169.111315,228.854721 175.667166,232.078067 184.017256,232.078067 C192.412482,232.078067 198.911914,229.03442 203.515748,222.947033 C208.119582,216.859646 210.489166,208.133024 210.624573,196.766907 L210.624573,189.489034 Z" id="Combined-Shape"></path>
                <path d="M223.374471,336.375173 C223.374471,345.989201 221.749613,354.378887 218.499848,361.544483 C215.250083,368.710078 210.646319,374.17966 204.688417,377.95339 C198.730514,381.727121 191.779733,383.613958 183.835863,383.613958 C176.072536,383.613958 169.189456,381.71589 163.186419,377.919696 C157.183381,374.123503 152.523197,368.710078 149.205729,361.679258 C145.888261,354.648438 144.184417,346.505838 144.094145,337.251213 L144.094145,330.175503 C144.094145,320.741176 145.741571,312.407646 149.036471,305.174662 C152.331372,297.941678 156.991555,292.40471 163.017161,288.563591 C169.042767,284.722473 175.93713,282.801942 183.700457,282.801942 C191.599191,282.801942 198.561256,284.70001 204.586862,288.496204 C210.612468,292.292397 215.250083,297.795672 218.499848,305.006193 C221.749613,312.216714 223.374471,320.6064 223.374471,330.175503 L223.374471,336.375173 Z M210.624573,330.176775 C210.624573,318.541105 208.277556,309.612322 203.583451,303.390159 C198.889346,297.167996 192.322212,294.056961 183.88185,294.056961 C175.667167,294.056961 169.201585,297.167996 164.484913,303.390159 C159.76824,309.612322 157.342237,318.249094 157.20683,329.300734 L157.20683,336.511219 C157.20683,347.787486 159.587698,356.648882 164.349507,363.095671 C169.111315,369.542461 175.667166,372.765808 184.017256,372.765808 C192.412482,372.765808 198.911914,369.72216 203.515748,363.634773 C208.119582,357.547386 210.489166,348.820765 210.624573,337.454647 L210.624573,330.176775 Z" id="Combined-Shape-Copy"></path>
                <polygon id="Path" points="363.087475 154.168337 331.402426 154.168337 331.402426 241.637586 318.471135 241.637586 318.471135 154.168337 286.853789 154.168337 286.853789 143.521079 363.087475 143.521079"></polygon>
                <polygon id="Path" points="490.986928 196.285657 448.266274 196.285657 448.266274 231.057716 497.892644 231.057716 497.892644 241.637586 435.26728 241.637586 435.26728 143.521079 497.215613 143.521079 497.215613 154.168337 448.266274 154.168337 448.266274 185.705786 490.986928 185.705786"></polygon>
                <polygon id="Path" points="79.9211905 382.325327 66.8544928 382.325327 17.2281231 306.716315 17.2281231 382.325327 4.16142547 382.325327 4.16142547 284.208819 17.2281231 284.208819 66.989899 360.15477 66.989899 284.208819 79.9211905 284.208819"></polygon>
                <polygon id="Path" points="324.792432 365.141461 352.956921 284.208819 367.174571 284.208819 330.614899 382.325327 319.105372 382.325327 282.613403 284.208819 296.763351 284.208819"></polygon>
                <path d="M74.8862517,524.360822 L10.2974976,524.360822 L10.2974976,515.398256 L44.4198583,477.661138 C49.4750481,471.955617 52.9617227,467.317142 54.8799867,463.745576 C56.7982507,460.174009 57.7573683,456.478953 57.7573683,452.660297 C57.7573683,447.538805 56.2002126,443.338347 53.0858546,440.058795 C49.9714966,436.779243 45.8190815,435.139492 40.6284849,435.139492 C34.3997688,435.139492 29.5590458,436.902786 26.1061707,440.429427 C22.6532955,443.956069 20.9268838,448.864091 20.9268838,455.153642 L8.40181092,455.153642 C8.40181092,446.123644 11.3242987,438.823382 17.1693619,433.252636 C23.0144251,427.681891 30.8340546,424.89656 40.6284849,424.89656 C49.7910164,424.89656 57.0351753,427.2888 62.3611788,432.073351 C67.6871824,436.857903 70.3501442,443.225978 70.3501442,451.177767 C70.3501442,460.836721 64.1666566,472.337442 51.7994958,485.680276 L25.3952881,514.185277 L74.8862517,514.185277 L74.8862517,524.360822 Z" id="Path"></path>
                <path d="M214.794062,481.106176 C214.794062,495.70692 212.289072,506.556233 207.279018,513.65444 C202.268964,520.752648 194.438051,524.301699 183.786044,524.301699 C173.269443,524.301699 165.483665,520.831266 160.428475,513.890297 C155.373286,506.949328 152.755459,496.582956 152.574916,482.790869 L152.574916,466.146104 C152.574916,451.725062 155.079906,441.010523 160.08996,434.002166 C165.100014,426.993809 172.953495,423.489683 183.650638,423.489683 C194.257509,423.489683 202.065855,426.870266 207.075909,433.631533 C212.085963,440.392801 214.658655,450.82656 214.794062,464.933125 L214.794062,481.106176 Z M202.110589,465.09778 C202.110589,454.540319 200.621136,446.846966 197.642185,442.017489 C194.663234,437.188012 189.946632,434.77331 183.492238,434.77331 C177.082979,434.77331 172.411512,437.176781 169.477697,441.983795 C166.543881,446.790809 165.031861,454.180921 164.941589,464.154352 L164.941589,484.101115 C164.941589,494.703501 166.487461,502.531628 169.579251,507.585732 C172.671042,512.639836 177.353792,515.166849 183.627644,515.166849 C189.811224,515.166849 194.403705,512.785841 197.405224,508.023752 C200.406743,503.261663 201.975182,495.75924 202.110589,485.516256 L202.110589,465.09778 Z" id="Combined-Shape"></path>
                <polygon id="Path" points="344.488285 523.484782 331.895509 523.484782 331.895509 440.395734 306.642254 449.62785 306.642254 438.306715 342.524895 424.89656 344.488285 424.89656"></polygon>
                <path d="M483.674994,284.208819 L483.674994,294.78869 L481.373088,294.78869 C471.623794,294.968392 463.860583,297.843572 458.083223,303.414317 C452.305863,308.985062 448.965877,316.824421 448.063165,326.932628 C453.253761,321.00248 460.339948,318.037451 469.321937,318.037451 C477.897706,318.037451 484.746934,321.047405 489.869827,327.067404 C494.99272,333.087403 497.554128,340.859374 497.554128,350.383552 C497.554128,360.491759 494.789613,368.578204 489.260499,374.643128 C483.731385,380.708052 476.31797,383.740469 467.020032,383.740469 C457.586687,383.740469 449.936313,380.135262 444.068682,372.924741 C438.201051,365.71422 435.26728,356.42604 435.26728,345.059923 L435.26728,340.275395 C435.26728,322.215398 439.137601,308.412287 446.878361,298.865647 C454.61912,289.319006 466.139815,284.433446 481.440791,284.208819 L483.674994,284.208819 Z M467.351521,327.822019 C463.063637,327.822019 459.114329,329.102373 455.50348,331.663119 C451.89263,334.223864 449.38764,337.43598 447.988436,341.299561 L447.988436,345.881926 C447.988436,353.968491 449.816401,360.482572 453.472387,365.424362 C457.128372,370.366152 461.687002,372.83701 467.148412,372.83701 C472.790365,372.83701 477.224874,370.770474 480.452071,366.637341 C483.679268,362.504207 485.292842,357.090782 485.292842,350.396902 C485.292842,343.658097 483.6567,338.210979 480.384368,334.055382 C477.112035,329.899786 472.767796,327.822019 467.351521,327.822019 Z" id="Combined-Shape"></path>
                <path d="M495.658442,450.444767 C495.658442,455.341632 494.360812,459.699327 491.765514,463.517983 C489.170215,467.336639 485.660973,470.324131 481.237682,472.480549 C486.383143,474.681892 490.456572,477.894007 493.458091,482.116991 C496.45961,486.339976 497.960347,491.124455 497.960347,496.470574 C497.960347,504.961468 495.082994,511.722634 489.328202,516.754275 C483.57341,521.785916 476.002023,524.301699 466.613813,524.301699 C457.135332,524.301699 449.541378,521.774685 443.831721,516.720581 C438.122065,511.666478 435.26728,504.916543 435.26728,496.470574 C435.26728,491.169381 436.722882,486.384901 439.634129,482.116991 C442.545377,477.849082 446.573671,474.614504 451.719132,472.413161 C447.340977,470.256743 443.888153,467.269251 441.360558,463.450595 C438.832963,459.631939 437.569185,455.296707 437.569185,450.444767 C437.569185,442.1785 440.232147,435.619495 445.55815,430.767555 C450.884154,425.915616 457.902638,423.489683 466.613813,423.489683 C475.279853,423.489683 482.287053,425.915616 487.635625,430.767555 C492.984196,435.619495 495.658442,442.1785 495.658442,450.444767 Z M485.435274,496.201023 C485.435274,490.720129 483.686295,486.250122 480.188284,482.790869 C476.690273,479.331615 472.12036,477.602015 466.478407,477.602015 C460.836454,477.602015 456.311676,479.309153 452.903936,482.723481 C449.496197,486.137809 447.792352,490.630278 447.792352,496.201023 C447.792352,501.771768 449.451062,506.151926 452.76853,509.341627 C456.085998,512.531328 460.701047,514.126154 466.613813,514.126154 C472.481444,514.126154 477.085209,512.520097 480.425245,509.307933 C483.765281,506.095769 485.435274,501.726843 485.435274,496.201023 Z M466.613813,433.732615 C461.69403,433.732615 457.710871,435.248823 454.664217,438.281285 C451.617562,441.313747 450.094258,445.435588 450.094258,450.64693 C450.094258,455.633646 451.594995,459.665637 454.596514,462.743024 C457.598033,465.820412 461.603759,467.359083 466.613813,467.359083 C471.623867,467.359083 475.629594,465.820412 478.631113,462.743024 C481.632632,459.665637 483.133369,455.633646 483.133369,450.64693 C483.133369,445.660215 481.576213,441.59453 478.461855,438.449755 C475.347497,435.304979 471.398189,433.732615 466.613813,433.732615 Z" id="Combined-Shape"></path>
                <rect id="Rectangle" x="356.27212" y="368.659064" width="14.1565081" height="14.1565081"></rect>
                <path d="M162.558858,588.665871 L166.352016,575.905053 L170.509581,575.905053 L164.298079,593.743819 L160.803074,593.743819 L154.54188,575.905053 L158.716009,575.905053 L162.558858,588.665871 Z M172.265366,584.659568 C172.265366,582.911953 172.613206,581.337475 173.308898,579.936087 C174.00459,578.534698 174.981856,577.457568 176.240727,576.704665 C177.499598,575.951762 178.946173,575.575316 180.580497,575.575316 C182.998853,575.575316 184.961669,576.35019 186.469001,577.899961 C187.976333,579.449732 188.790721,581.505072 188.912191,584.066041 L188.928755,585.005791 C188.928755,586.764397 188.589197,588.336127 187.910069,589.721029 C187.230941,591.105931 186.259196,592.177565 184.994804,592.935964 C183.730412,593.694362 182.270033,594.073556 180.613625,594.073556 C178.08484,594.073556 176.061291,593.235483 174.542917,591.559312 C173.024542,589.883141 172.265366,587.649196 172.265366,584.85741 L172.265366,584.659568 Z M176.290419,585.005791 C176.290419,586.841336 176.671387,588.278425 177.433335,589.317101 C178.195284,590.355778 179.255369,590.875108 180.613625,590.875108 C181.97188,590.875108 183.029205,590.347534 183.785632,589.292371 C184.542058,588.237208 184.920266,586.692955 184.920266,584.659568 C184.920266,582.856997 184.531016,581.428151 183.752504,580.372988 C182.973991,579.317825 181.916666,578.790251 180.580497,578.790251 C179.266412,578.790251 178.22289,579.309581 177.4499,580.348258 C176.676909,581.386934 176.290419,582.93943 176.290419,585.005791 Z M197.376398,571.569013 L197.376398,575.905053 L200.540123,575.905053 L200.540123,578.872685 L197.376398,578.872685 L197.376398,588.830739 C197.376398,589.512199 197.51167,590.004052 197.782216,590.306312 C198.052763,590.608572 198.535875,590.7597 199.231567,590.7597 C199.695361,590.7597 200.16467,590.704744 200.639507,590.594832 L200.639507,593.694358 C199.722961,593.947158 198.839556,594.073556 197.989267,594.073556 C194.897303,594.073556 193.351345,592.375428 193.351345,588.979121 L193.351345,578.872685 L190.402952,578.872685 L190.402952,575.905053 L193.351345,575.905053 L193.351345,571.569013 L197.376398,571.569013 Z M211.505495,594.073556 C208.954626,594.073556 206.886906,593.273952 205.302275,591.67472 C203.717644,590.075488 202.92534,587.945959 202.92534,585.286068 L202.92534,584.791462 C202.92534,583.010874 203.27042,581.41991 203.960591,580.018521 C204.650761,578.617132 205.619746,577.526263 206.867574,576.745882 C208.115402,575.965501 209.506764,575.575316 211.041703,575.575316 C213.482145,575.575316 215.367662,576.35019 216.698311,577.899961 C218.028959,579.449732 218.694274,581.642461 218.694274,584.478212 L218.694274,586.093923 L206.983522,586.093923 C207.104992,587.566755 207.599146,588.731814 208.466,589.589134 C209.332854,590.446454 210.423307,590.875108 211.737391,590.875108 C213.581526,590.875108 215.083315,590.133207 216.242801,588.649384 L218.412686,590.71024 C217.694908,591.776394 216.736966,592.603476 215.538831,593.19151 C214.340695,593.779543 212.996263,594.073556 211.505495,594.073556 Z M211.025139,578.790251 C209.920866,578.790251 209.02918,579.17494 208.350052,579.94433 C207.670924,580.71372 207.237504,581.785354 207.049778,583.159265 L214.718912,583.159265 L214.718912,582.862502 C214.63057,581.521565 214.271687,580.507634 213.642252,579.820679 C213.012817,579.133723 212.140454,578.790251 211.025139,578.790251 Z M225.551772,575.905053 L225.66772,577.965909 C226.992847,576.372172 228.73205,575.575316 230.885382,575.575316 C234.617823,575.575316 236.517143,577.702098 236.5834,581.955725 L236.5834,593.743819 L232.558346,593.743819 L232.558346,582.186541 C232.558346,581.054439 232.312649,580.216366 231.821248,579.672297 C231.329847,579.128229 230.526501,578.856198 229.411185,578.856198 C227.787905,578.856198 226.578744,579.587108 225.783668,581.048949 L225.783668,593.743819 L221.758615,593.743819 L221.758615,575.905053 L225.551772,575.905053 Z M239.929329,584.659568 C239.929329,582.911953 240.27717,581.337475 240.972861,579.936087 C241.668553,578.534698 242.645819,577.457568 243.90469,576.704665 C245.163561,575.951762 246.610136,575.575316 248.24446,575.575316 C250.662817,575.575316 252.625632,576.35019 254.132964,577.899961 C255.640296,579.449732 256.454685,581.505072 256.576155,584.066041 L256.592719,585.005791 C256.592719,586.764397 256.25316,588.336127 255.574032,589.721029 C254.894905,591.105931 253.923159,592.177565 252.658767,592.935964 C251.394375,593.694362 249.933997,594.073556 248.277588,594.073556 C245.748804,594.073556 243.725254,593.235483 242.20688,591.559312 C240.688505,589.883141 239.929329,587.649196 239.929329,584.85741 L239.929329,584.659568 Z M243.954382,585.005791 C243.954382,586.841336 244.335351,588.278425 245.097299,589.317101 C245.859247,590.355778 246.919332,590.875108 248.277588,590.875108 C249.635843,590.875108 250.693168,590.347534 251.449595,589.292371 C252.206022,588.237208 252.584229,586.692955 252.584229,584.659568 C252.584229,582.856997 252.194979,581.428151 251.416467,580.372988 C250.637955,579.317825 249.58063,578.790251 248.24446,578.790251 C246.930375,578.790251 245.886853,579.309581 245.113863,580.348258 C244.340872,581.386934 243.954382,582.93943 243.954382,585.005791 Z M266.31579,588.665871 L270.108947,575.905053 L274.266513,575.905053 L268.05501,593.743819 L264.560005,593.743819 L258.298811,575.905053 L262.472941,575.905053 L266.31579,588.665871 Z M279.285406,589.523187 C280.036312,589.523187 280.616046,589.734766 281.024627,590.15793 C281.433208,590.581095 281.637495,591.111416 281.637495,591.748911 C281.637495,592.375414 281.433208,592.894744 281.024627,593.306918 C280.616046,593.719091 280.036312,593.925174 279.285406,593.925174 C278.567629,593.925174 277.998937,593.721839 277.579314,593.315161 C277.15969,592.908483 276.949882,592.386405 276.949882,591.748911 C276.949882,591.111416 277.154169,590.581095 277.56275,590.15793 C277.971331,589.734766 278.545544,589.523187 279.285406,589.523187 Z M293.613271,590.875108 C294.618159,590.875108 295.451873,590.583843 296.114436,590.001305 C296.777,589.418767 297.130362,588.698849 297.174532,587.841529 L300.96769,587.841529 C300.923519,588.951648 300.575678,589.987561 299.924157,590.949299 C299.272637,591.911036 298.389232,592.672171 297.273916,593.232727 C296.158601,593.793282 294.954962,594.073556 293.662963,594.073556 C291.156265,594.073556 289.168604,593.265709 287.699921,591.64999 C286.231239,590.034271 285.496908,587.803074 285.496908,584.956331 L285.496908,584.54416 C285.496908,581.829312 286.225717,579.655818 287.683357,578.023613 C289.140997,576.391407 291.128658,575.575316 293.646399,575.575316 C295.777645,575.575316 297.514088,576.193567 298.855779,577.430086 C300.19747,578.666606 300.901433,580.290544 300.96769,582.301949 L297.174532,582.301949 C297.130362,581.279759 296.77976,580.438939 296.122718,579.779462 C295.465676,579.119985 294.629202,578.790251 293.613271,578.790251 C292.31023,578.790251 291.305357,579.260121 290.598622,580.199876 C289.891888,581.139631 289.533005,582.565729 289.521962,584.478212 L289.521962,585.121199 C289.521962,587.055665 289.872563,588.49825 290.573776,589.448996 C291.274989,590.399742 292.288144,590.875108 293.613271,590.875108 Z M303.253523,584.659568 C303.253523,582.911953 303.601363,581.337475 304.297055,579.936087 C304.992747,578.534698 305.970013,577.457568 307.228884,576.704665 C308.487755,575.951762 309.93433,575.575316 311.568653,575.575316 C313.98701,575.575316 315.949825,576.35019 317.457157,577.899961 C318.964489,579.449732 319.778878,581.505072 319.900348,584.066041 L319.916912,585.005791 C319.916912,586.764397 319.577353,588.336127 318.898226,589.721029 C318.219098,591.105931 317.247353,592.177565 315.982961,592.935964 C314.718569,593.694362 313.25819,594.073556 311.601781,594.073556 C309.072997,594.073556 307.049448,593.235483 305.531073,591.559312 C304.012699,589.883141 303.253523,587.649196 303.253523,584.85741 L303.253523,584.659568 Z M307.278576,585.005791 C307.278576,586.841336 307.659544,588.278425 308.421492,589.317101 C309.18344,590.355778 310.243526,590.875108 311.601781,590.875108 C312.960037,590.875108 314.017362,590.347534 314.773788,589.292371 C315.530215,588.237208 315.908423,586.692955 315.908423,584.659568 C315.908423,582.856997 315.519173,581.428151 314.74066,580.372988 C313.962148,579.317825 312.904823,578.790251 311.568653,578.790251 C310.254569,578.790251 309.211047,579.309581 308.438056,580.348258 C307.665065,581.386934 307.278576,582.93943 307.278576,585.005791 Z M327.105691,575.905053 L327.221639,577.768067 C328.480509,576.306226 330.203149,575.575316 332.389608,575.575316 C334.78588,575.575316 336.4257,576.487579 337.309118,578.312132 C338.61216,576.487579 340.445225,575.575316 342.808368,575.575316 C344.785016,575.575316 346.256437,576.119377 347.222676,577.207514 C348.188914,578.295651 348.683069,579.900355 348.705154,582.021672 L348.705154,593.743819 L344.680101,593.743819 L344.680101,582.13708 C344.680101,581.004978 344.431643,580.175148 343.93472,579.647567 C343.437798,579.119985 342.615127,578.856198 341.466684,578.856198 C340.550137,578.856198 339.802004,579.100751 339.222261,579.589863 C338.642518,580.078975 338.236704,580.719208 338.004806,581.51058 L338.02137,593.743819 L333.996317,593.743819 L333.996317,582.005186 C333.941103,579.90585 332.864454,578.856198 330.766336,578.856198 C329.154098,578.856198 328.011193,579.51017 327.337587,580.818133 L327.337587,593.743819 L323.312533,593.743819 L323.312533,575.905053 L327.105691,575.905053 Z" id="URL-Copy"></path>
                <path d="M373.116476,33.039562 L366.007651,28.1876468 C370.205263,22.3473493 372.371741,16.1926665 372.507148,9.7234139 L372.507148,0.0195834828 L384.896814,0.0195834828 L384.896814,8.77998595 C384.851679,13.2725225 383.734589,17.7537605 381.545511,22.2238343 C379.356433,26.6939082 376.546783,30.2991147 373.116476,33.039562 Z" id="Path"></path>
            </g>
        </g>
    </g>
</svg>